<svg width="90" height="68" viewBox="0 0 90 68" fill="none" xmlns="http://www.w3.org/2000/svg">
<path d="M76.2336 39.5539C68.5244 39.4464 62.1874 45.6089 62.08 53.3188C61.9726 61.028 68.135 67.365 75.845 67.4724C83.5541 67.5798 89.8911 61.4174 89.9985 53.7075C90.106 45.9983 83.9435 39.6613 76.2336 39.5539ZM75.9152 62.4127C71.0002 62.344 67.0709 58.3042 67.1396 53.3891C67.2084 48.474 71.2482 44.5448 76.1633 44.6135C81.0784 44.6823 85.0076 48.7221 84.9389 53.6372C84.8702 58.5523 80.8303 62.4807 75.9152 62.4127Z" fill="#7C7A6B"/>
<path d="M76.2062 41.54C69.5934 41.4476 64.1578 46.734 64.0661 53.3467C63.9737 59.9594 69.2601 65.3951 75.8728 65.4867C82.4855 65.5791 87.9212 60.2927 88.0128 53.68C88.1052 47.0673 82.8189 41.6316 76.2062 41.54ZM75.9241 61.8095C71.3424 61.7455 67.6802 57.9797 67.7434 53.398C67.8074 48.8163 71.5731 45.1541 76.1548 45.218C80.7365 45.282 84.3987 49.0477 84.3348 53.6295C84.2716 58.2104 80.5058 61.8726 75.9241 61.8095Z" fill="#3D3231"/>
<path d="M76.0985 49.2856C73.7634 49.2532 71.8446 51.1198 71.8115 53.4541C71.7791 55.7892 73.6457 57.708 75.98 57.7412C78.3151 57.7736 80.2339 55.907 80.2671 53.5727C80.2995 51.2368 78.4336 49.318 76.0985 49.2856Z" fill="#7C7A6B"/>
<path d="M16.3866 39.4828C8.70666 39.3762 2.39415 45.5149 2.2875 53.1948C2.18086 60.8747 8.31959 67.1873 15.9995 67.2939C23.6794 67.4006 29.992 61.2618 30.0986 53.5819C30.2052 45.902 24.0657 39.5902 16.3866 39.4828ZM16.069 62.254C11.1729 62.1861 7.25868 58.1613 7.32741 53.2651C7.39535 48.369 11.4202 44.4548 16.3163 44.5235C21.2124 44.5914 25.1266 48.6162 25.0579 53.5124C24.9892 58.4085 20.9652 62.3219 16.069 62.254Z" fill="#7C7A6B"/>
<path d="M16.3525 41.8717C9.99184 41.7833 4.76393 46.8674 4.67545 53.2281C4.58698 59.5888 9.67113 64.8167 16.0318 64.9052C22.3925 64.9937 27.6204 59.9096 27.7089 53.5488C27.7974 47.1889 22.7133 41.9602 16.3525 41.8717ZM16.0903 60.7311C12.0354 60.6742 8.79349 57.3414 8.85036 53.2866C8.90724 49.2318 12.24 45.9898 16.2949 46.0467C20.3497 46.1035 23.5917 49.4363 23.5348 53.4912C23.4779 57.546 20.1451 60.7872 16.0903 60.7311Z" fill="#3D3231"/>
<path d="M16.2655 48.2386C13.3521 48.1983 10.9586 50.5263 10.9175 53.4396C10.8772 56.353 13.2052 58.7473 16.1186 58.7876C19.0319 58.8279 21.4255 56.4999 21.4665 53.5865C21.5068 50.6732 19.1788 48.2788 16.2655 48.2386Z" fill="#7C7A6B"/>
<path d="M33.0461 56.4315H16.4863C14.806 56.4315 13.4434 55.0696 13.4434 53.3886C13.4434 51.7084 14.8052 50.3457 16.4863 50.3457H30.5419C32.2221 50.3457 33.5848 51.7076 33.5848 53.3886C33.584 55.0689 33.0461 56.4315 33.0461 56.4315Z" fill="#3D3231"/>
<path d="M0.652224 46.8056C0.973736 46.9968 1.39005 46.8909 1.58122 46.5694L7.65121 36.3577C7.84238 36.0362 7.73653 35.6199 7.41502 35.4287C7.09351 35.2375 6.67721 35.3434 6.48604 35.6649L0.416032 45.8766C0.224073 46.1981 0.329923 46.6144 0.652224 46.8056Z" fill="#3D3231"/>
<path d="M84.2511 41.7895C84.5473 41.7982 84.6982 41.4482 84.4928 41.2341C79.2783 35.7961 68.6148 37.2844 64.7637 43.3449C64.7629 43.3473 64.77 43.3568 64.77 43.3741C64.7629 44.0772 66.3523 44.9509 67.6115 45.4865L74.887 48.5057C73.5891 43.3733 77.3145 41.588 84.2511 41.7895Z" fill="#ED9F04"/>
<path d="M77.4335 52.852C76.059 39.5381 73.0358 34.9303 67.2937 21.7389C67.0227 20.9332 66.1498 20.5011 65.3441 20.772C64.5391 21.0438 64.1062 21.9167 64.3772 22.7216L74.517 53.8347C74.7888 54.6405 75.6609 55.0726 76.4666 54.8016C77.2716 54.5307 77.7045 53.6578 77.4335 52.852Z" fill="#3D3231"/>
<path d="M74.975 26.4722L63.166 11.7151L64.0152 18.248C62.9677 18.2338 58.6411 20.6155 59.0851 21.5642L57.8623 29.8888C57.8022 30.2964 57.9871 30.7008 58.3339 30.9228L61.6596 33.0486C57.2169 36.3056 53.2142 41.4071 51.4763 43.7746C50.8957 44.5661 50.7179 45.5812 51.0023 46.5205L52.9266 52.8788L46.152 52.784C45.9774 52.7816 45.8052 52.7698 45.6353 52.7492C42.6217 52.3858 40.8893 49.0949 42.0458 46.2882L46.1931 36.2266C46.9182 34.4665 45.6409 32.5288 43.7371 32.5027L10.4366 32.039C7.80289 32.0019 5.61788 34.1269 5.58154 36.7606C5.58154 36.7606 30.4003 59.8438 44.3327 59.9323L50.4786 59.971C55.2562 60.0373 57.4752 56.6176 59.7771 53.382C59.1815 46.2574 65.7586 39.7656 74.9284 33.502C76.7493 30.7467 76.7698 28.9234 74.975 26.4722Z" fill="#FCD024"/>
<path d="M57.8719 29.8274L57.8632 29.889C57.8032 30.2966 57.9881 30.7011 58.3348 30.9231L61.4694 32.9264C64.5707 32.4658 67.7788 31.8062 70.3319 32.3671C71.0105 31.2224 57.8719 29.8274 57.8719 29.8274Z" fill="#ED9F04"/>
<path d="M74.9751 26.4724L71.0474 21.5645H64.3755L73.6756 29.6125C74.1725 30.0422 74.8068 30.2792 75.4641 30.2792H76.2635C76.3954 29.0248 75.9807 27.8462 74.9751 26.4724Z" fill="#A9C7BF"/>
<path d="M52.9278 52.8781L46.1531 52.7833C45.9786 52.7809 45.8071 52.7485 45.6365 52.7485C29.1304 52.7485 5.5835 36.759 5.5835 36.759C5.5835 36.759 30.4023 59.8423 44.3347 59.9308L50.4805 59.9695C55.2582 60.0358 57.4771 56.6161 59.7791 53.3805C59.1834 46.2559 65.7606 39.764 74.9304 33.5005C66.6998 35.8435 55.3751 45.398 52.9278 52.8781Z" fill="#ED9F04"/>
<path d="M18.5166 47.4124C21.3288 49.7981 16.6523 46.1343 21.0539 49.2569L41.9814 55.2069C41.7491 54.255 40.4544 49.9545 42.0469 46.2883L44.0424 41.4482C44.0424 41.4482 42.7737 42.2998 40.9466 43.059C40.9466 43.059 41.9395 44.3411 41.2831 45.353C40.2561 46.9337 32.6947 46.9519 18.5166 47.4124Z" fill="#3D3231"/>
<path d="M52.9278 52.8783L46.1531 52.7835C46.0046 52.7811 45.8585 52.7725 45.7139 52.7574C42.7666 52.4501 41.009 49.3448 41.9474 46.5776L39.9749 51.0401C39.0949 53.0315 40.5334 55.2742 42.7105 55.305L47.3183 55.369C49.4615 55.399 51.5114 54.489 52.9278 52.8783Z" fill="#3D3231"/>
<path d="M43.621 31.3243L33.8887 31.1884C32.1453 31.1639 30.5701 30.1425 29.8371 28.5602L29.5827 28.0112L16.5516 28.2735C14.7963 28.309 13.3887 30.0777 13.4084 32.224C13.4147 32.9397 13.8942 33.5101 14.4788 33.4982L26.4576 33.2565L42.8144 44.323L46.1393 36.5419C46.829 36.5514 47.4309 36.0182 47.4515 35.3286C47.517 33.1538 45.7886 31.3543 43.621 31.3243Z" fill="#3D3231"/>
<path d="M60.3046 40.8128C60.5898 40.4605 60.5352 39.9447 60.1829 39.6595L59.4435 39.0607C59.0912 38.7755 58.5754 38.8301 58.2902 39.1824C58.005 39.5347 58.0595 40.0505 58.4119 40.3357L59.1512 40.9345C59.5036 41.2197 60.0194 41.1652 60.3046 40.8128Z" fill="#AE5E00"/>
<path d="M58.0058 43.6522C58.2909 43.3006 58.2364 42.784 57.8841 42.4989L57.1447 41.9001C56.7924 41.6149 56.2765 41.6694 55.9914 42.0217C55.7062 42.3732 55.7607 42.8899 56.113 43.175L56.8524 43.7738C57.2048 44.0582 57.7214 44.0045 58.0058 43.6522Z" fill="#AE5E00"/>
<path d="M55.8139 46.3607C56.099 46.0092 56.0445 45.4925 55.6922 45.2073L54.9528 44.6086C54.6013 44.3234 54.0847 44.3779 53.7995 44.7302C53.5143 45.0825 53.5688 45.5984 53.9211 45.8836L54.6605 46.4823C55.0121 46.7667 55.5287 46.7122 55.8139 46.3607Z" fill="#AE5E00"/>
<path d="M59.2781 5.97145C60.2513 5.53224 60.6842 4.3868 60.245 3.41358L59.218 1.13852C58.7788 0.165298 57.6334 -0.267596 56.6602 0.171618L59.2781 5.97145Z" fill="#3D3231"/>
<path d="M63.2003 13.9857C62.8938 13.9857 62.6316 13.7518 62.6015 13.4414L62.0494 7.69922C62.0265 7.45512 62.0012 7.20234 61.919 7.01828C61.8527 6.86977 61.7271 6.71257 61.6046 6.5609L58.4519 2.63561C58.2434 2.37651 58.2845 1.99733 58.5436 1.78957C58.8011 1.58102 59.1818 1.62131 59.3896 1.8812L62.5431 5.80649C62.6963 5.99845 62.8891 6.23702 63.0186 6.52851C63.1806 6.89189 63.2161 7.25922 63.2477 7.58389L63.7999 13.3253C63.8315 13.6563 63.589 13.9509 63.258 13.9825C63.239 13.9841 63.2201 13.9857 63.2003 13.9857Z" fill="#3D3231"/>
<path d="M67.3718 17.846C68.0101 17.793 68.36 17.0758 68.0061 16.5425C66.6269 14.4665 64.0848 10.3769 63.8755 10.3501C58.8332 9.70232 56.9768 10.6463 56.6482 13.2066C56.5408 14.0415 56.4357 14.9255 56.3425 15.7376C56.1616 17.3167 57.4682 18.6667 59.052 18.5356L67.3718 17.846Z" fill="#FCD024"/>
<path d="M56.0061 17.1594L61.3818 16.6602C62.3021 16.5749 62.979 15.7588 62.8937 14.8386C62.8084 13.9183 61.9932 13.2413 61.0721 13.3266L55.6965 13.8258C54.7762 13.9111 54.0992 14.7272 54.1845 15.6475C54.2698 16.5686 55.085 17.2455 56.0061 17.1594Z" fill="#3D3231"/>
<path d="M72.0581 41.8338C72.0581 42.5819 72.6648 43.1894 73.4137 43.1894C74.1618 43.1894 74.7684 42.5827 74.7684 41.8338C74.7684 41.0857 74.1618 40.4783 73.4137 40.4783C72.6648 40.4791 72.0581 41.0857 72.0581 41.8338Z" fill="#F76A40"/>
<path d="M14.4791 33.499L0 30.404V28.9236L10.8453 28.7861L14.4791 33.499Z" fill="#3D3231"/>
</svg>
