<svg width="139" height="60" viewBox="0 0 139 60" fill="none" xmlns="http://www.w3.org/2000/svg">
<path d="M23.8401 36.7339L69.1591 37.4609L75.2691 37.4019L75.4401 36.9719L69.0731 36.7539L23.7471 35.9929L23.8401 36.7339Z" fill="black"/>
<path d="M119.623 20.492C108.797 20.372 99.924 29.0509 99.804 39.8769C99.684 50.7029 108.363 59.5759 119.189 59.6959C130.015 59.8159 138.888 51.137 139.008 40.311C139.129 29.486 130.449 20.612 119.623 20.492ZM119.26 53.337C111.947 53.256 106.083 47.2619 106.164 39.9479C106.245 32.6349 112.239 26.7719 119.553 26.8529C126.866 26.9339 132.729 32.928 132.648 40.242C132.568 47.555 126.573 53.418 119.26 53.337Z" fill="#333334"/>
<path d="M24.2449 20.323C13.3429 20.202 4.40691 28.943 4.28591 39.845C4.16491 50.747 12.9059 59.684 23.8079 59.804C34.7099 59.925 43.6459 51.184 43.7669 40.282C43.8879 29.379 35.1469 20.443 24.2449 20.323ZM23.8819 53.156C16.6509 53.076 10.8539 47.149 10.9339 39.918C11.0139 32.687 16.9409 26.89 24.1719 26.97C31.4029 27.05 37.1999 32.977 37.1199 40.208C37.0399 47.439 31.1129 53.236 23.8819 53.156Z" fill="#333334"/>
<path d="M7.25098 41.4301C7.35498 32.1811 14.963 24.7411 24.212 24.8431C31.521 24.9241 37.7 29.6911 39.922 36.2511C41.037 39.5441 44.022 41.8371 47.499 41.8751C47.641 28.9331 37.228 18.2891 24.287 18.1451C11.345 18.0021 0.187977 27.6841 0.000976562 44.5941L7.25098 41.4301Z" fill="black"/>
<path d="M21.35 18.292C9.70201 19.535 0.173 28.981 0 44.595C2.236 43.369 3.692 41.132 4.052 38.607C5.449 28.802 11.644 22.562 19.352 20.789C20.524 20.52 21.364 19.495 21.35 18.292Z" fill="#4F5E6D"/>
<path d="M136.658 28.1281C131.49 20.8141 121.956 17.3871 113.029 20.3541C102.11 23.9831 95.5371 35.3551 100.279 49.6221L105.457 44.8601C102.865 37.0561 107.103 28.5981 114.907 26.0041C119.602 24.4441 124.531 25.3601 128.28 28.0341L136.658 28.1281Z" fill="black"/>
<path d="M113.708 22.4221C119.908 20.3611 126.447 21.9151 131.049 25.9251C132.615 27.2901 134.582 28.1051 136.659 28.1281C131.491 20.8141 121.957 17.3871 113.03 20.3541C102.111 23.9831 95.538 35.3551 100.28 49.6221C101.731 48.2881 102.391 46.2891 101.99 44.3601C99.7531 33.6271 105.176 25.2581 113.708 22.4221Z" fill="#4F5E6D"/>
<path d="M119.648 29.8551C113.992 29.7921 109.356 34.3272 109.294 39.9832C109.231 45.6392 113.766 50.2752 119.422 50.3372C125.078 50.4002 129.714 45.8651 129.776 40.2091C129.839 34.5541 125.304 29.9181 119.648 29.8551ZM119.464 46.5042C115.925 46.4652 113.088 43.5642 113.127 40.0252C113.166 36.4862 116.067 33.6491 119.606 33.6881C123.145 33.7271 125.982 36.6282 125.943 40.1672C125.904 43.7062 123.003 46.5432 119.464 46.5042Z" fill="#4F5E6D"/>
<path d="M24.123 31.3721C19.323 31.3191 15.389 35.1671 15.335 39.9671C15.282 44.7671 19.13 48.7011 23.93 48.7551C28.73 48.8081 32.664 44.9601 32.718 40.1601C32.771 35.3591 28.923 31.4251 24.123 31.3721ZM23.966 45.5012C20.963 45.4682 18.555 43.0061 18.588 40.0031C18.621 36.9991 21.083 34.5921 24.087 34.6251C27.09 34.6581 29.498 37.1201 29.465 40.1241C29.431 43.1271 26.97 45.5352 23.966 45.5012Z" fill="#4F5E6D"/>
<path d="M19.7781 40.0161C19.7521 42.3711 21.6401 44.3021 23.9961 44.3281C26.3511 44.3541 28.2821 42.4661 28.3081 40.1101C28.3341 37.7551 26.4461 35.8241 24.0901 35.7981C21.7341 35.7721 19.8041 37.6611 19.7781 40.0161Z" fill="black"/>
<path d="M23.2681 44.2591L68.5831 45.209L74.7171 44.1561L74.9521 40.9061L68.6031 39.8971L23.2861 38.6951L23.2681 44.2591Z" fill="black"/>
<path d="M115.3 39.9381C115.327 42.2931 117.259 44.1811 119.614 44.1541C121.969 44.1271 123.857 42.1951 123.83 39.8401C123.803 37.4851 121.871 35.5971 119.516 35.6241C117.16 35.6511 115.272 37.5831 115.3 39.9381Z" fill="black"/>
<path d="M96.0529 11.5919L93.6401 13.7529L112.526 34.8381L114.939 32.677L96.0529 11.5919Z" fill="#4F5E6D"/>
<path d="M80.3879 11.4239C68.4339 12.4679 45.325 26.1929 45.325 26.1929L36.606 21.5319C44.021 29.0289 49.9519 37.7829 45.2379 51.4249L78.0399 51.8789C81.0599 51.9119 83.576 49.6109 83.843 46.6029C84.608 37.9839 91.7329 19.7279 100.1 13.2419C102.408 11.4519 92.0819 10.4029 80.3879 11.4239ZM92.8139 18.0499C90.1289 21.6649 87.802 25.9069 85.985 30.0859L71.183 29.9219L71.343 15.4799C74.571 14.4409 77.764 13.6599 80.563 13.4159C83.857 13.1279 87.22 12.9939 90.287 13.0279C90.316 13.0279 90.345 13.0289 90.374 13.0289C92.935 13.0609 94.3419 15.9929 92.8139 18.0499Z" fill="black"/>
<path d="M50.2938 43.68C49.8778 43.296 49.5148 42.834 49.2508 42.274C48.8958 41.521 49.2178 40.622 49.9708 40.267C50.7228 39.912 51.6238 40.234 51.9778 40.987C52.3868 41.849 53.7428 42.278 54.9828 42.612L62.7749 44.705C63.6169 44.931 64.4119 45.145 65.1709 45.167C65.4879 45.174 73.7438 44.516 74.0258 44.507C75.1958 44.468 76.5208 44.423 77.1778 43.933C77.8908 43.401 78.2688 42.334 78.6558 41.098L81.1818 33.02C81.4298 32.225 82.2759 31.782 83.0709 32.03C83.8648 32.279 84.3088 33.125 84.0608 33.919L81.5348 42C81.1128 43.347 80.5358 45.191 78.9818 46.351C77.5678 47.406 75.6608 47.471 74.1288 47.522C73.8688 47.53 65.5438 48.195 65.0858 48.183C63.9718 48.152 62.9198 47.869 61.9918 47.619L54.2009 45.526C53.1819 45.25 51.5088 44.801 50.2938 43.68Z" fill="#39414C"/>
<path d="M48.923 37.4681C48.997 37.2421 49.126 37.0311 49.309 36.8551C49.909 36.2781 50.864 36.2961 51.442 36.8951C51.988 37.4631 52.956 37.7891 53.81 38.0771C55.271 38.5701 62.668 40.5981 64.774 40.7091C65.636 40.7221 69.099 39.0811 70.763 38.2931C73.414 37.0371 74.157 36.7181 74.811 36.7201C76.421 36.7251 77.857 37.5071 78.559 38.7601C78.965 39.4871 78.707 40.4061 77.98 40.8131C77.253 41.2201 76.334 40.9611 75.927 40.2341C75.778 39.9681 75.362 39.7691 74.912 39.7391C74.456 39.8791 73.131 40.5071 72.054 41.0181C68.504 42.7011 66.069 43.7981 64.615 43.7211C61.904 43.5781 54.084 41.3521 52.845 40.9351C51.722 40.5561 50.325 40.0851 49.268 38.9871C48.867 38.5701 48.754 37.9821 48.923 37.4681Z" fill="#4F5E6D"/>
<path d="M105.373 21.4033L102.351 24.1101L118.66 42.3192L121.682 39.6124L105.373 21.4033Z" fill="black"/>
<path d="M97.159 14.7039C100.487 15.2519 103.471 15.5329 106.587 15.2919C107.157 15.2479 107.644 14.9189 107.775 14.4849C108.577 11.8169 108.426 9.03793 107.948 6.17993C107.863 5.67393 107.317 5.27792 106.664 5.24392C102.809 5.04392 99.9871 5.16092 97.7221 5.71792C96.6091 5.75692 95.7111 6.49493 95.6491 7.42193L95.5971 12.9899C95.5411 13.8049 96.2 14.5459 97.159 14.7039Z" fill="black"/>
<path d="M108.328 9.91589C108.298 8.68689 108.158 7.4419 107.947 6.1799C107.862 5.6739 107.316 5.2789 106.663 5.2449C102.808 5.0449 99.986 5.1619 97.721 5.7189C96.608 5.7579 95.7101 6.49591 95.6481 7.42291C95.6361 8.72291 96.679 9.7869 97.978 9.8009L108.328 9.91589Z" fill="#4F5E6D"/>
<path d="M107.947 6.18011C107.862 5.67411 107.316 5.27811 106.663 5.24411C106.141 5.21711 105.642 5.19713 105.157 5.18213L105.535 15.3291C105.886 15.3151 106.234 15.3201 106.587 15.2931C107.157 15.2491 107.644 14.9201 107.775 14.4861C108.576 11.8171 108.425 9.03811 107.947 6.18011Z" fill="#A6B0A7"/>
<path d="M108.328 9.91611C108.298 8.68711 108.158 7.44211 107.947 6.18011C107.862 5.67411 107.316 5.27912 106.663 5.24512C106.141 5.21812 105.642 5.19811 105.157 5.18311L105.332 9.88312L108.328 9.91611Z" fill="#B8FFFF"/>
<path d="M80.2061 34.27C80.2061 32.919 81.301 31.825 82.651 31.825C84.002 31.825 85.097 32.92 85.097 34.27C85.097 35.62 84.002 36.715 82.651 36.715C81.301 36.715 80.2061 35.62 80.2061 34.27Z" fill="#4F5E6D"/>
<path d="M81.0449 34.2701C81.0449 33.3831 81.7639 32.6631 82.6519 32.6631C83.5399 32.6631 84.2589 33.3821 84.2589 34.2701C84.2589 35.1571 83.5399 35.8771 82.6519 35.8771C81.7639 35.8771 81.0449 35.1571 81.0449 34.2701Z" fill="black"/>
<path d="M60.3509 16.0969L73.5429 7.98993C77.6959 5.43793 82.8059 4.98393 87.3439 6.76593L91.2859 8.31292C92.5999 8.82892 93.2299 10.3259 92.6809 11.6259L91.0469 15.4969C90.5319 16.7179 89.2819 17.4609 87.9639 17.3319L78.6679 16.4219L62.1329 20.3879C60.9119 20.6809 59.6749 19.9619 59.3259 18.7559C59.0289 17.7389 59.4489 16.6509 60.3509 16.0969Z" fill="#4F5E6D"/>
<path d="M79.3969 14.799L91.374 14.706C91.379 14.693 91.3829 14.684 91.3889 14.671C92.0989 12.952 90.85 11.056 88.99 11.036L82.512 10.964C80.159 10.938 77.823 11.373 75.637 12.246L60.5779 18.256C59.6429 18.629 59.468 19.972 60.351 20.454C60.623 20.601 79.3969 14.799 79.3969 14.799Z" fill="black"/>
<path d="M50.269 21.5081C48.434 22.7441 46.522 24.2221 44.311 24.1471C42.684 24.0921 41.226 23.1671 39.932 22.1781C33.401 17.1851 32.834 18.1081 30.77 20.4571C39.604 23.7491 42.832 30.6821 43.667 31.2901C44.502 31.8981 45.643 32.2141 46.58 31.7801C47.232 31.4781 47.683 30.8731 48.118 30.3011C50.955 26.5751 54.353 23.2761 58.162 20.5511C58.591 20.2441 59.062 19.8881 59.145 19.3671C59.252 18.6991 58.617 18.0951 57.949 17.9871C57.281 17.8801 56.612 18.1321 55.99 18.3971C53.99 19.2501 52.072 20.2931 50.269 21.5081Z" fill="#573332"/>
<path d="M23.482 16.854L30.554 16.97C31.485 16.985 32.232 17.7439 32.232 18.6749L32.347 21.1059C28.563 19.7049 24.445 19.5889 21.771 20.1219L21.937 18.245C22.007 17.448 22.681 16.841 23.482 16.854Z" fill="#573332"/>
<path d="M83.9482 29.2133L80.6572 26.2463L84.6842 19.4473L88.3722 21.6323L83.9482 29.2133Z" fill="black"/>
<path d="M89.8462 23.0092L82.9172 18.9052C82.7112 18.7832 82.6432 18.5172 82.7652 18.3122C82.8872 18.1062 83.1522 18.0382 83.3582 18.1602L90.2872 22.2642C90.4932 22.3862 90.5612 22.6522 90.4392 22.8572C90.3182 23.0632 90.0522 23.1302 89.8462 23.0092Z" fill="black"/>
<path d="M88.817 24.1101L82.447 20.3371C82.241 20.2151 82.173 19.9501 82.295 19.7441C82.417 19.5381 82.683 19.4701 82.888 19.5921L89.258 23.3651C89.464 23.4871 89.532 23.7521 89.41 23.9581C89.288 24.1631 89.022 24.2321 88.817 24.1101Z" fill="black"/>
<path d="M87.8481 25.1463L82.0031 21.6843C81.7971 21.5623 81.7291 21.2973 81.8511 21.0913C81.9731 20.8853 82.2381 20.8173 82.4441 20.9393L88.2891 24.4013C88.4951 24.5233 88.5631 24.7893 88.4411 24.9943C88.3191 25.2003 88.0541 25.2683 87.8481 25.1463Z" fill="black"/>
<path d="M86.8352 26.1573L81.6032 23.0583C81.3972 22.9363 81.3292 22.6713 81.4512 22.4653C81.5732 22.2593 81.8382 22.1913 82.0442 22.3133L87.2762 25.4123C87.4822 25.5343 87.5502 25.7993 87.4282 26.0053C87.3072 26.2103 87.0412 26.2783 86.8352 26.1573Z" fill="black"/>
<path d="M85.8541 27.1853L81.1731 24.4123C80.9671 24.2903 80.899 24.0253 81.021 23.8193C81.143 23.6133 81.4091 23.5453 81.6141 23.6673L86.2951 26.4403C86.5011 26.5623 86.5691 26.8273 86.4471 27.0333C86.3251 27.2393 86.0591 27.3073 85.8541 27.1853Z" fill="black"/>
<path d="M78.8528 18.3028L74.6157 18.9482L75.8058 26.7601L80.0429 26.1147L78.8528 18.3028Z" fill="black"/>
<path d="M72.7221 19.6831L80.6831 18.4701C80.9191 18.4341 81.0821 18.2131 81.0461 17.9771C81.0101 17.7411 80.7891 17.5781 80.5531 17.6141L72.5921 18.8271C72.3561 18.8631 72.1931 19.0841 72.2291 19.3201C72.2651 19.5561 72.4861 19.7191 72.7221 19.6831Z" fill="black"/>
<path d="M73.2651 21.089L80.5841 19.974C80.8201 19.938 80.9831 19.717 80.9471 19.481C80.9111 19.245 80.6901 19.082 80.4541 19.118L73.1351 20.233C72.8991 20.269 72.7361 20.49 72.7721 20.726C72.8081 20.963 73.0291 21.125 73.2651 21.089Z" fill="black"/>
<path d="M73.7753 22.413L80.4913 21.39C80.7273 21.354 80.8903 21.133 80.8543 20.897C80.8183 20.661 80.5973 20.498 80.3613 20.534L73.6453 21.557C73.4093 21.593 73.2463 21.814 73.2823 22.05C73.3183 22.287 73.5393 22.449 73.7753 22.413Z" fill="black"/>
<path d="M74.3359 23.7291L80.3469 22.8131C80.5829 22.7771 80.7459 22.5561 80.7099 22.3201C80.6739 22.0841 80.4529 21.9211 80.2169 21.9571L74.2059 22.8731C73.9699 22.9091 73.8069 23.1301 73.8429 23.3661C73.8789 23.6031 74.0999 23.7651 74.3359 23.7291Z" fill="black"/>
<path d="M74.8612 25.0511L80.2402 24.2321C80.4762 24.1961 80.6392 23.9751 80.6032 23.7391C80.5672 23.5031 80.3462 23.3401 80.1102 23.3761L74.7322 24.1951C74.4962 24.2311 74.3332 24.4521 74.3692 24.6881C74.4042 24.9241 74.6252 25.0871 74.8612 25.0511Z" fill="black"/>
<path d="M83.9572 29.7442C83.5132 32.0332 81.2972 33.5282 79.0082 33.0832C76.7192 32.6392 75.2242 30.4232 75.6692 28.1342C76.1132 25.8452 78.3292 24.3502 80.6182 24.7952C82.9062 25.2402 84.4012 27.4562 83.9572 29.7442Z" fill="black"/>
<path d="M83.2561 29.608C82.8871 31.509 81.0461 32.751 79.1451 32.382C77.2441 32.013 76.002 30.172 76.371 28.271C76.74 26.37 78.581 25.128 80.482 25.497C82.383 25.866 83.6251 27.707 83.2561 29.608Z" fill="black"/>
<path d="M80.6511 27.7133C80.5551 28.2063 80.0781 28.5283 79.5851 28.4323C79.0921 28.3363 78.7701 27.8593 78.8661 27.3663C78.9621 26.8733 79.4391 26.5513 79.9321 26.6473C80.4251 26.7433 80.7471 27.2203 80.6511 27.7133Z" fill="black"/>
<path d="M77.9201 30.0272C75.4361 30.0762 73.0701 29.6121 70.8201 28.6481C70.2921 28.5451 69.9471 28.0342 70.0491 27.5062L70.2601 26.4222C70.3631 25.8942 70.8741 25.5492 71.4021 25.6512L78.5021 27.0302C79.0301 27.1332 79.3751 27.6442 79.2731 28.1722L79.0621 29.2562C78.9591 29.7852 78.4481 30.1302 77.9201 30.0272Z" fill="black"/>
<path d="M72.1951 27.3611C72.1301 27.6961 71.8061 27.9141 71.4721 27.8491C71.1371 27.7841 70.9191 27.4601 70.9841 27.1261C71.0491 26.7921 71.3731 26.5731 71.7071 26.6381C72.0411 26.7021 72.2601 27.0261 72.1951 27.3611Z" fill="black"/>
<path d="M78.4109 28.5682C78.3459 28.9032 78.0219 29.1212 77.6879 29.0562C77.3529 28.9912 77.1349 28.6672 77.1999 28.3332C77.2649 27.9982 77.5889 27.7802 77.9229 27.8452C78.2569 27.9102 78.4759 28.2332 78.4109 28.5682Z" fill="black"/>
<path d="M72.9291 28.3374L76.0215 28.9377L76.2567 27.7263L73.1643 27.126L72.9291 28.3374Z" fill="black"/>
<path d="M80.329 31.8411L76.728 28.5931L81.135 21.1531L85.1711 23.5441L80.329 31.8411Z" fill="#4F5E6D"/>
<path d="M86.7852 25.05L79.2022 20.558C78.9772 20.425 78.9023 20.134 79.0363 19.909C79.1693 19.684 79.4602 19.609 79.6852 19.743L87.2682 24.235C87.4932 24.368 87.5673 24.6591 87.4343 24.8841C87.3003 25.1091 87.0102 25.184 86.7852 25.05Z" fill="#A6B0A7"/>
<path d="M85.6582 26.2552L78.6872 22.1252C78.4622 21.9922 78.3882 21.7012 78.5212 21.4762C78.6542 21.2512 78.9452 21.1762 79.1702 21.3102L86.1412 25.4402C86.3662 25.5732 86.4412 25.8642 86.3072 26.0892C86.1742 26.3142 85.8832 26.3882 85.6582 26.2552Z" fill="#A6B0A7"/>
<path d="M84.5983 27.3901L78.2013 23.601C77.9763 23.468 77.9013 23.1771 78.0353 22.9521C78.1683 22.7271 78.4593 22.653 78.6843 22.786L85.0813 26.575C85.3063 26.708 85.3813 26.9991 85.2473 27.2241C85.1143 27.4481 84.8233 27.5231 84.5983 27.3901Z" fill="#A6B0A7"/>
<path d="M83.4893 28.495L77.7633 25.103C77.5383 24.97 77.4643 24.6789 77.5973 24.4539C77.7303 24.2289 78.0213 24.154 78.2463 24.288L83.9723 27.68C84.1973 27.813 84.2723 28.1039 84.1383 28.3289C84.0053 28.5539 83.7153 28.629 83.4893 28.495Z" fill="#A6B0A7"/>
<path d="M82.4151 29.6212L77.2921 26.5862C77.0671 26.4532 76.9921 26.1621 77.1261 25.9371C77.2591 25.7121 77.5501 25.6382 77.7751 25.7712L82.8981 28.8062C83.1231 28.9392 83.1971 29.2302 83.0641 29.4552C82.9311 29.6802 82.6401 29.7552 82.4151 29.6212Z" fill="#A6B0A7"/>
<path d="M74.7547 19.8983L70.1172 20.6047L71.4196 29.1542L76.0571 28.4477L74.7547 19.8983Z" fill="#4F5E6D"/>
<path d="M68.0439 21.411L76.7569 20.084C77.0159 20.045 77.1929 19.803 77.1539 19.544C77.1149 19.285 76.8729 19.108 76.6139 19.147L67.9009 20.474C67.6419 20.513 67.4649 20.755 67.5039 21.014C67.5439 21.272 67.7849 21.45 68.0439 21.411Z" fill="#A6B0A7"/>
<path d="M68.6381 22.95L76.6481 21.73C76.9071 21.691 77.0841 21.449 77.0451 21.19C77.0061 20.931 76.7641 20.754 76.5051 20.793L68.4951 22.013C68.2361 22.052 68.0592 22.294 68.0982 22.553C68.1382 22.811 68.3791 22.989 68.6381 22.95Z" fill="#A6B0A7"/>
<path d="M69.1958 24.399L76.5458 23.2791C76.8048 23.2401 76.9818 22.998 76.9428 22.739C76.9038 22.48 76.6618 22.302 76.4028 22.342L69.0528 23.4621C68.7938 23.5011 68.6168 23.743 68.6558 24.002C68.6958 24.26 68.9378 24.438 69.1958 24.399Z" fill="#A6B0A7"/>
<path d="M69.81 25.8389L76.389 24.8369C76.648 24.7979 76.825 24.5559 76.786 24.2969C76.747 24.0379 76.505 23.8599 76.246 23.8999L69.667 24.9019C69.408 24.9409 69.231 25.1829 69.27 25.4419C69.31 25.6999 69.552 25.8779 69.81 25.8389Z" fill="#A6B0A7"/>
<path d="M70.3847 27.2849L76.2707 26.3879C76.5297 26.3489 76.7067 26.1069 76.6677 25.8479C76.6287 25.5889 76.3868 25.4109 76.1278 25.4509L70.2417 26.3479C69.9827 26.3869 69.8057 26.6289 69.8447 26.8879C69.8847 27.1469 70.1257 27.3239 70.3847 27.2849Z" fill="#A6B0A7"/>
<path d="M80.3389 32.4219C79.8529 34.9269 77.4279 36.5629 74.9229 36.0769C72.4179 35.5899 70.7819 33.1659 71.2689 30.6609C71.7549 28.1559 74.1799 26.5199 76.6849 27.0069C79.1899 27.4919 80.8259 29.9169 80.3389 32.4219Z" fill="#4F5E6D"/>
<path d="M79.5719 32.273C79.1679 34.354 77.1529 35.713 75.0729 35.309C72.9919 34.905 71.6329 32.89 72.0369 30.81C72.4409 28.729 74.4559 27.37 76.5359 27.774C78.6169 28.177 79.9759 30.192 79.5719 32.273Z" fill="#A6B0A7"/>
<path d="M76.721 30.1989C76.616 30.7379 76.0941 31.0909 75.5551 30.9859C75.0151 30.8809 74.663 30.3589 74.768 29.8199C74.873 29.2799 75.3951 28.9279 75.9341 29.0329C76.4741 29.1369 76.826 29.6589 76.721 30.1989Z" fill="#4F5E6D"/>
<path d="M73.7331 32.732C71.0141 32.785 68.4251 32.278 65.9631 31.223C65.3851 31.111 65.0071 30.551 65.1201 29.973L65.3501 28.787C65.4621 28.209 66.0221 27.831 66.6001 27.944L74.3701 29.453C74.9481 29.565 75.3261 30.125 75.2131 30.703L74.9831 31.8891C74.8701 32.4661 74.3101 32.844 73.7331 32.732Z" fill="#A6B0A7"/>
<path d="M67.4669 29.813C67.3959 30.179 67.0409 30.418 66.6749 30.347C66.3089 30.276 66.0699 29.922 66.1409 29.555C66.2119 29.189 66.5669 28.95 66.9329 29.021C67.2989 29.093 67.5379 29.447 67.4669 29.813Z" fill="#4F5E6D"/>
<path d="M74.2701 31.1341C74.1991 31.5001 73.8441 31.7391 73.4781 31.6681C73.1121 31.5971 72.8731 31.2421 72.9441 30.8761C73.0151 30.5101 73.3701 30.2711 73.7361 30.3421C74.1021 30.4141 74.3411 30.7681 74.2701 31.1341Z" fill="#4F5E6D"/>
<path d="M68.2821 30.8752L71.666 31.5322L71.9233 30.2069L68.5394 29.5499L68.2821 30.8752Z" fill="#4F5E6D"/>
<path d="M85.127 40.1392C85.127 40.1392 85.202 40.1592 85.347 40.1982C85.42 40.2182 85.51 40.2421 85.617 40.2701C85.732 40.3041 85.904 40.3722 86.077 40.4362C86.754 40.7132 87.671 41.1851 88.547 42.1541C89.419 43.0951 90.2231 44.5261 90.3871 46.3551C90.5771 48.1531 89.8371 50.4341 88.076 51.8771C86.3471 53.3351 84.0561 53.9801 81.7791 54.1631C81.2051 54.2011 80.627 54.2342 80.041 54.2202C79.49 54.2062 78.932 54.1931 78.368 54.1791C77.243 54.1431 76.093 54.1062 74.924 54.0692C70.273 53.9252 65.319 53.7022 60.355 53.6422L58.495 53.6091L57.566 53.5931C57.256 53.5971 56.949 53.5442 56.634 53.6682C56.319 53.7812 56 53.9871 55.689 54.0461C55.378 54.0981 55.072 54.0472 54.765 54.0482C54.151 54.0262 53.538 54.0052 52.928 53.9832C50.488 53.8972 48.087 53.8121 45.763 53.7301C43.44 53.6411 41.192 53.5831 39.064 53.4761C36.935 53.3761 34.923 53.2811 33.065 53.1931C29.349 53.0331 26.2551 52.8301 24.0891 52.7091C21.9231 52.5691 20.686 52.4891 20.686 52.4891L20.938 47.4951C20.938 47.4951 22.177 47.5401 24.345 47.6181C26.512 47.7151 29.61 47.8232 33.323 48.0352C35.18 48.1332 37.192 48.2391 39.319 48.3511C41.447 48.4551 43.689 48.6222 46.009 48.7632C48.329 48.9112 50.726 49.0631 53.162 49.2181C53.771 49.2571 54.382 49.2951 54.996 49.3341C55.302 49.3651 55.611 49.3442 55.915 49.4272C56.219 49.5162 56.5161 49.7531 56.8181 49.8961C57.1201 50.0501 57.43 50.0282 57.738 50.0612L58.664 50.1351L60.518 50.2841C65.462 50.7051 70.414 50.9621 75.051 51.2431C76.204 51.3081 77.338 51.3721 78.448 51.4341C79.002 51.4611 79.55 51.4881 80.091 51.5151C80.597 51.5421 81.1011 51.5191 81.5891 51.4981C83.541 51.4001 85.311 50.8881 86.471 49.9551C87.641 49.0351 88.102 47.7122 88.034 46.5182C87.964 45.3172 87.445 44.2961 86.868 43.6461C86.307 42.9731 85.661 42.6312 85.281 42.4582C85.182 42.4192 85.121 42.3811 85.024 42.3481C84.918 42.3161 84.828 42.2902 84.757 42.2682C84.613 42.2252 84.539 42.2032 84.539 42.2032L85.127 40.1392Z" fill="#4F5E6D"/>
<path d="M95.08 12.275C92.956 12.275 91.793 10.214 90.665 8.21604C89.685 6.48004 88.574 4.51201 86.784 3.34201C84.422 1.79701 80.804 2.93403 75.331 4.65003L74.228 4.99603C73.536 5.21703 72.806 4.82703 72.59 4.13803C72.375 3.44903 72.759 2.71503 73.448 2.50003L74.548 2.15503C80.509 0.284031 84.816 -1.06898 88.215 1.15302C90.539 2.67102 91.872 5.03303 92.943 6.93003C93.714 8.29303 94.511 9.69902 95.136 9.65802C95.839 9.60302 96.482 10.149 96.533 10.87C96.584 11.59 96.042 12.216 95.321 12.267C95.24 12.273 95.159 12.275 95.08 12.275Z" fill="#A6B0A7"/>
<path d="M73.838 5.055C73.281 5.055 72.7649 4.69801 72.5899 4.13801C72.3739 3.44901 72.758 2.715 73.447 2.499L74.611 2.13199C76.5 1.53299 78.452 0.914991 80.44 0.458991C81.138 0.297991 81.845 0.737985 82.006 1.44099C82.167 2.14499 81.728 2.84599 81.023 3.00699C79.139 3.43899 77.238 4.041 75.4 4.624L74.227 4.99399C74.099 5.03599 73.967 5.055 73.838 5.055Z" fill="black"/>
</svg>
